<?xml version="1.0" encoding="utf-8"?>
<svg viewBox="0 0 42 42" width="42" height="42" xmlns="http://www.w3.org/2000/svg">
  <rect width="42" height="42" rx="3" ry="3" style="fill: rgb(52, 58, 64);"/>
  <g id="Fill" transform="matrix(1, 0, 0, 1, 5.610001, 4.39)">
    <path d="M18,1.22l-16,16v8.94A3.84,3.84,0,0,0,5.84,30h8.94l16-16ZM14,28H5.84A1.85,1.85,0,0,1,4,26.16V18.05l14-14L28,14Z" style="fill: rgb(255, 255, 255);"/>
    <path d="M18,10a4,4,0,1,0,4,4A4,4,0,0,0,18,10Zm0,6a2,2,0,1,1,2-2A2,2,0,0,1,18,16Z" style="fill: rgb(220, 53, 69);"/>
  </g>
</svg>