<?xml version="1.0" encoding="utf-8"?>
<svg id="Layer_1" style="enable-background:new 0 0 512 512;" version="1.1" viewBox="0 0 512 512" xmlns="http://www.w3.org/2000/svg">
  <style type="text/css">
	.st0{fill:#333333;}
</style>
  <path class="st0" d="M38,130.3v23.8c10.9,0,19.7,8.8,19.7,19.7c0,10.9-8.8,19.7-19.7,19.7v15.5c10.9,0,19.7,8.8,19.7,19.7  c0,10.9-8.8,19.7-19.7,19.7v15.5c10.9,0,19.7,8.8,19.7,19.7s-8.8,19.7-19.7,19.7v15.5c10.9,0,19.7,8.8,19.7,19.7  s-8.8,19.7-19.7,19.7v23.8h436V130.3H38z M182,344h-74.3c-3.9,0-7-3.1-7-7s3.1-7,7-7H182c3.9,0,7,3.1,7,7S185.9,344,182,344z   M182,290h-74.3c-3.9,0-7-3.1-7-7s3.1-7,7-7H182c3.9,0,7,3.1,7,7S185.9,290,182,290z M182,236h-74.3c-3.9,0-7-3.1-7-7s3.1-7,7-7H182  c3.9,0,7,3.1,7,7S185.9,236,182,236z M182,182h-74.3c-3.9,0-7-3.1-7-7s3.1-7,7-7H182c3.9,0,7,3.1,7,7S185.9,182,182,182z M237,354  c0,3.9-3.1,7-7,7s-7-3.1-7-7v-33.9c0-3.9,3.1-7,7-7s7,3.1,7,7V354z M237,300c0,3.9-3.1,7-7,7s-7-3.1-7-7v-33.9c0-3.9,3.1-7,7-7  s7,3.1,7,7V300z M237,245.9c0,3.9-3.1,7-7,7s-7-3.1-7-7V212c0-3.9,3.1-7,7-7s7,3.1,7,7V245.9z M237,191.9c0,3.9-3.1,7-7,7  s-7-3.1-7-7V158c0-3.9,3.1-7,7-7s7,3.1,7,7V191.9z M436.1,187.7l-1.9,20c-0.4,3.9-2.3,7.6-5.4,10.1l-20.1,16.6l27,69.3l-14.2,14.2  L370,266.4l-25.8,21.3l13.1,45.9l-7.1,7.1l-33.5-33.5c-4.4,0.5-9-0.9-12.3-4.3c-3.4-3.3-4.8-7.9-4.3-12.3l-33.5-33.5l7.1-7.1  l45.9,13.1l21.3-25.8l-51.5-51.5l14.2-14.2l69.3,27l16.6-20c2.5-3.1,6.2-5,10.1-5.3l20-1.9C429.1,170.5,436.9,178.3,436.1,187.7z" style="fill: rgb(52, 58, 64);"/>
  <rect x="253.553" y="148.636" width="204.403" height="199.289" style="fill: rgb(52, 58, 64);"/>
  <g id="g2275" transform="matrix(1, 0, 0, 1, 52.931448, -89.978201)">
    <path d="M 233.467 348.048 L 233.467 261.268 L 296.727 261.268 L 359.987 261.268 L 359.987 348.048 L 359.987 434.827 L 296.727 434.827 L 233.467 434.827 L 233.467 348.048 Z" id="path2271" style="fill: rgb(255, 255, 255);"/>
    <path d="M 214.881 445.796 C 206.602 444.256 201.54 439.563 199.482 431.529 C 198.834 428.987 198.815 426.83 198.821 346.494 C 198.828 254.795 198.642 261.749 201.235 256.34 C 203.626 251.36 207.906 248.016 214.019 246.362 C 216.133 245.789 221.108 245.755 299.179 245.755 C 378.562 245.755 382.187 245.781 384.339 246.389 C 389.235 247.77 393.679 250.956 395.828 254.628 C 396.335 255.489 397.181 257.421 397.709 258.921 L 398.675 261.648 L 398.769 345.254 C 398.879 437.839 399.034 431.174 396.641 436.149 C 394.455 440.69 390.995 443.541 385.602 445.242 L 382.782 446.13 L 300.041 446.189 C 233.346 446.236 216.828 446.161 214.881 445.796 Z M 266.528 417.542 C 270.954 411.035 274.808 405.44 275.095 405.108 C 275.586 404.541 277.155 404.501 298.86 404.501 L 322.099 404.501 L 330.609 416.939 L 339.126 429.376 L 345.84 429.376 C 349.534 429.376 352.554 429.263 352.554 429.129 C 352.554 428.994 347.406 421.143 341.115 411.688 C 333.942 400.91 329.748 394.296 329.875 393.969 C 329.986 393.681 330.299 393.448 330.566 393.448 C 330.834 393.448 332.295 392.823 333.809 392.068 C 338.92 389.509 343.094 384.195 344.422 378.55 C 345.206 375.234 345.206 299.029 344.422 295.71 C 342.741 288.576 336.654 282.535 329.247 280.654 C 326.181 279.874 271.607 279.88 268.299 280.66 C 261.347 282.296 255.354 288.043 253.174 295.156 C 252.573 297.12 252.539 299.375 252.539 336.961 C 252.539 381.321 252.388 378.496 254.975 383.42 C 257.275 387.794 261.593 391.65 265.662 392.97 C 266.615 393.28 267.535 393.662 267.708 393.822 C 267.894 393.99 263.234 401.315 256.567 411.335 C 250.266 420.808 245.108 428.742 245.108 428.967 C 245.108 429.269 246.879 429.376 251.799 429.376 L 258.486 429.376 L 266.528 417.542 Z M 268.366 381.702 C 265.168 379.869 263.526 376.73 263.855 373.089 C 264.502 365.942 272.688 362.269 278.32 366.6 C 282.748 370.009 283.127 376.608 279.101 380.316 C 277.021 382.235 275.682 382.736 272.674 382.734 C 270.519 382.73 269.901 382.582 268.366 381.702 Z M 320.526 382.016 C 318.829 381.18 316.767 379.015 316.074 377.355 C 315.806 376.716 315.587 375.12 315.587 373.803 C 315.587 371.86 315.767 371.07 316.554 369.568 C 318.78 365.308 323.899 363.561 328.199 365.596 C 335.086 368.856 335.409 378.295 328.759 381.77 C 326.36 383.023 322.779 383.13 320.526 382.016 Z M 271.115 334.57 C 267.834 333.763 264.966 331.156 264.082 328.181 C 263.853 327.394 263.759 323.421 263.827 317.269 L 263.94 307.595 L 264.859 306.041 C 266.08 303.975 267.375 302.79 269.467 301.828 L 271.194 301.03 L 298.829 301.03 L 326.469 301.03 L 328.448 302.002 C 330.775 303.143 332.267 304.82 333.214 307.349 C 333.828 308.994 333.899 310.048 333.895 317.883 C 333.895 322.755 333.74 327.156 333.541 327.869 C 332.86 330.321 331.101 332.369 328.549 333.68 L 326.195 334.888 L 299.56 334.95 C 278.861 335 272.52 334.915 271.115 334.57 Z M 286.487 296.05 C 285.36 295.043 285.36 295.04 285.242 291.254 C 285.149 288.282 285.246 287.234 285.68 286.394 C 286.739 284.35 287.195 284.275 298.589 284.275 C 305.066 284.275 309.319 284.414 309.986 284.648 C 311.809 285.282 312.134 286.189 312.134 290.676 C 312.134 297.323 312.702 297.056 298.508 297.056 L 287.615 297.056 L 286.487 296.05 Z M 294.361 277.008 C 295.661 276.203 296.929 273.861 296.929 272.269 C 296.929 269.009 294.374 266.576 290.974 266.602 C 287.708 266.629 285.529 268.968 285.529 272.442 C 285.529 274.63 286.549 276.223 288.642 277.301 C 290.469 278.242 292.534 278.136 294.361 277.008 Z M 309.561 277.008 C 311.601 275.748 312.642 272.54 311.766 270.22 C 310.122 265.887 303.821 265.308 301.495 269.276 C 300.446 271.069 300.561 273.942 301.749 275.615 C 303.449 278.001 306.946 278.623 309.561 277.008 Z" id="path2269" style="fill: rgb(52, 58, 64);"/>
  </g>
</svg>