<?xml version="1.0" ?><svg height="588" id="svg2258" version="1.0" width="587" xmlns="http://www.w3.org/2000/svg" xmlns:cc="http://web.resource.org/cc/" xmlns:dc="http://purl.org/dc/elements/1.1/" xmlns:inkscape="http://www.inkscape.org/namespaces/inkscape" xmlns:rdf="http://www.w3.org/1999/02/22-rdf-syntax-ns#" xmlns:sodipodi="http://inkscape.sourceforge.net/DTD/sodipodi-0.dtd" xmlns:svg="http://www.w3.org/2000/svg"><defs id="defs2261"/><g id="g2275" transform="translate(-11.34622,-19.85588)"><path d="M 116.29883,322.10106 L 116.29883,70.913893 L 299.40865,70.913893 L 482.51848,70.913893 L 482.51848,322.10106 L 482.51848,573.28822 L 299.40865,573.28822 L 116.29883,573.28822 L 116.29883,322.10106 z " id="path2271" style="fill:#fdfdfd"/><path d="M 62.500042,605.04297 C 38.539487,600.58487 23.880119,587.00055 17.931899,563.74323 C 16.049014,556.38123 16.000482,550.1415 16.017406,317.59971 C 16.036722,52.179269 15.497809,72.304391 23.005189,56.648486 C 29.918158,42.232168 42.307307,32.56105 60.000042,27.769865 C 66.120133,26.112546 80.527444,26.009667 306.50004,26.009667 C 536.28743,26.009667 546.77663,26.087759 553.00004,27.844852 C 567.17269,31.846301 580.0352,41.068456 586.26129,51.69249 C 587.72363,54.187773 590.17557,59.779936 591.71006,64.119518 L 594.50004,72.009667 L 594.77805,314.00967 C 595.08592,582.0061 595.53817,562.71202 588.611,577.11136 C 582.28628,590.25842 572.26799,598.51275 556.66157,603.43535 L 548.50004,606.00967 L 309.00004,606.17753 C 115.94737,606.31283 68.1425,606.0928 62.500042,605.04297 z M 211.99756,523.25967 C 224.80365,504.42217 235.96281,488.22217 236.79569,487.25967 C 238.20991,485.62536 242.75675,485.50967 305.57677,485.50967 L 372.84352,485.50967 L 397.48623,521.50967 L 422.12894,557.50967 L 441.56449,557.50967 C 452.25404,557.50967 461.00004,557.18834 461.00004,556.79561 C 461.00004,556.40288 446.09935,533.68452 427.88739,506.31037 C 407.13237,475.11378 394.99167,455.97388 395.356,455.02443 C 395.6757,454.19131 396.57429,453.50967 397.35286,453.50967 C 398.13143,453.50967 402.3597,451.71219 406.74901,449.51527 C 421.53394,442.11518 433.61499,426.72893 437.46515,410.39563 C 439.7288,400.79267 439.72646,180.21678 437.4626,170.61278 C 432.59425,149.95973 414.97325,132.47296 393.53994,127.0247 C 384.66065,124.76762 226.69796,124.7854 217.11408,127.04456 C 197.00169,131.78555 179.64796,148.42166 173.33875,169.00967 C 171.59925,174.68594 171.50004,181.21446 171.50004,290.00967 C 171.50004,418.41497 171.07101,410.24025 178.55776,424.48756 C 185.20971,437.14624 197.70462,448.31272 209.49138,452.13239 C 212.24615,453.0251 214.91198,454.13464 215.41546,454.59801 C 215.94804,455.08817 202.46083,476.2884 183.16546,505.29101 C 164.92448,532.70878 150.00004,555.67435 150.00004,556.32559 C 150.00004,557.19692 155.11281,557.50967 169.3569,557.50967 L 188.71377,557.50967 L 211.99756,523.25967 z M 217.31287,419.51594 C 208.0609,414.20972 203.3039,405.12347 204.25965,394.58323 C 206.1353,373.89823 229.82963,363.26677 246.12251,375.7997 C 258.95049,385.66734 260.03972,404.766 248.38708,415.50703 C 242.36826,421.05498 238.49329,422.51151 229.78216,422.50029 C 223.54351,422.49225 221.75676,422.06461 217.31287,419.51594 z M 368.28973,420.42402 C 363.39095,417.99915 357.41145,411.73856 355.40287,406.93135 C 354.63131,405.08476 354.00004,400.46084 354.00004,396.65598 C 354.00004,391.0263 354.5201,388.74255 356.79278,384.39214 C 363.23678,372.05691 378.05486,367.00351 390.50004,372.89698 C 410.43426,382.33692 411.37805,409.65514 392.11757,419.71693 C 385.17583,423.34334 374.80892,423.65098 368.28973,420.42402 z M 225.27365,283.09094 C 215.77522,280.75695 207.47194,273.21254 204.92087,264.59831 C 204.24495,262.3159 203.97494,250.81793 204.17908,233.00967 L 204.50004,205.00967 L 207.16083,200.50967 C 210.6951,194.53241 214.44676,191.10217 220.50004,188.31328 L 225.50004,186.00967 L 305.50004,186.00967 L 385.50004,186.00967 L 391.22963,188.82323 C 397.96158,192.12901 402.2777,196.97194 405.02034,204.29718 C 406.80177,209.05514 406.99948,212.1098 406.99446,234.79718 C 406.99135,248.88996 406.5379,261.63341 405.96634,263.69129 C 403.9939,270.79293 398.90421,276.71864 391.52074,280.50967 L 384.70408,284.00967 L 307.60206,284.19243 C 247.69478,284.33444 229.33449,284.08879 225.27365,283.09094 z M 269.76582,171.59381 C 266.50405,168.68153 266.49963,168.66449 266.16463,157.70931 C 265.90162,149.10817 266.17507,146.07188 267.43156,143.6421 C 270.49032,137.72711 271.81537,137.50967 304.80116,137.50967 C 323.54338,137.50967 335.85219,137.91077 337.78483,138.58449 C 343.06606,140.42554 344.00004,143.04866 344.00004,156.04023 C 344.00004,175.28197 345.649,174.50967 304.56548,174.50967 L 273.03159,174.50967 L 269.76582,171.59381 z M 292.55889,116.4733 C 296.32096,114.14821 300.00004,107.36756 300.00004,102.75904 C 300.00004,93.321935 292.59581,86.282088 282.75045,86.35835 C 273.30622,86.431505 267.00004,93.199783 267.00004,103.26291 C 267.00004,109.59213 269.95564,114.20565 276.00811,117.324 C 281.3021,120.05156 287.26506,119.74507 292.55889,116.4733 z M 336.55889,116.4733 C 342.46333,112.82416 345.47647,103.5366 342.93343,96.824767 C 338.18088,84.281406 319.93938,82.60809 313.20868,94.098077 C 310.17093,99.283809 310.50795,107.60548 313.95157,112.44159 C 318.87105,119.35037 328.98521,121.15409 336.55889,116.4733 z " id="path2269" style="fill:#000000"/></g></svg>